<mxfile host="app.diagrams.net" agent="Mozilla/5.0 (Windows NT 10.0; Win64; x64) AppleWebKit/537.36 (KHTML, like Gecko) Chrome/139.0.0.0 Safari/537.36 Edg/139.0.0.0" version="28.2.0">
  <diagram name="第 1 页" id="CNgwjgx6w8gT2y6WOWrA">
    <mxGraphModel dx="2058" dy="1146" grid="1" gridSize="10" guides="1" tooltips="1" connect="1" arrows="1" fold="1" page="1" pageScale="1" pageWidth="827" pageHeight="1169" math="0" shadow="0">
      <root>
        <mxCell id="0" />
        <mxCell id="1" parent="0" />
        <mxCell id="F6L24uCe4TR0LLmUrcFt-1" value="" style="whiteSpace=wrap;html=1;fillColor=none;dashed=1;strokeWidth=3;strokeColor=light-dark(#ce3b3b, #ededed);" vertex="1" parent="1">
          <mxGeometry x="955" y="745" width="940" height="315" as="geometry" />
        </mxCell>
        <mxCell id="F6L24uCe4TR0LLmUrcFt-2" value="" style="whiteSpace=wrap;html=1;fillColor=none;dashed=1;strokeWidth=3;strokeColor=light-dark(#ce3b3b, #ededed);" vertex="1" parent="1">
          <mxGeometry x="985" y="230" width="880" height="250" as="geometry" />
        </mxCell>
        <mxCell id="F6L24uCe4TR0LLmUrcFt-3" value="1" style="rounded=0;whiteSpace=wrap;html=1;fillColor=#fff2cc;strokeColor=#d6b656;fontSize=20;fontStyle=1" vertex="1" parent="1">
          <mxGeometry x="1185" y="300" width="40" height="120" as="geometry" />
        </mxCell>
        <mxCell id="F6L24uCe4TR0LLmUrcFt-4" value="2" style="rounded=0;whiteSpace=wrap;html=1;fillColor=#fff2cc;strokeColor=#d6b656;fontSize=20;fontStyle=1" vertex="1" parent="1">
          <mxGeometry x="1225" y="300" width="40" height="120" as="geometry" />
        </mxCell>
        <mxCell id="F6L24uCe4TR0LLmUrcFt-5" value="3" style="rounded=0;whiteSpace=wrap;html=1;fillColor=#fff2cc;strokeColor=#d6b656;fontSize=20;fontStyle=1" vertex="1" parent="1">
          <mxGeometry x="1265" y="300" width="40" height="120" as="geometry" />
        </mxCell>
        <mxCell id="F6L24uCe4TR0LLmUrcFt-6" value="4" style="rounded=0;whiteSpace=wrap;html=1;fillColor=#fff2cc;strokeColor=#d6b656;fontSize=20;fontStyle=1" vertex="1" parent="1">
          <mxGeometry x="1305" y="300" width="40" height="120" as="geometry" />
        </mxCell>
        <mxCell id="F6L24uCe4TR0LLmUrcFt-7" value="5" style="rounded=0;whiteSpace=wrap;html=1;fillColor=#fff2cc;strokeColor=#d6b656;fontSize=20;fontStyle=1" vertex="1" parent="1">
          <mxGeometry x="1345" y="300" width="40" height="120" as="geometry" />
        </mxCell>
        <mxCell id="F6L24uCe4TR0LLmUrcFt-8" value="6" style="rounded=0;whiteSpace=wrap;html=1;fillColor=#fff2cc;strokeColor=#d6b656;fontSize=20;fontStyle=1" vertex="1" parent="1">
          <mxGeometry x="1385" y="300" width="40" height="120" as="geometry" />
        </mxCell>
        <mxCell id="F6L24uCe4TR0LLmUrcFt-9" value="7" style="rounded=0;whiteSpace=wrap;html=1;fillColor=#fff2cc;strokeColor=#d6b656;fontSize=20;fontStyle=1" vertex="1" parent="1">
          <mxGeometry x="1425" y="300" width="40" height="120" as="geometry" />
        </mxCell>
        <mxCell id="F6L24uCe4TR0LLmUrcFt-10" value="8" style="rounded=0;whiteSpace=wrap;html=1;fillColor=#fff2cc;strokeColor=#d6b656;fontSize=20;fontStyle=1" vertex="1" parent="1">
          <mxGeometry x="1465" y="300" width="40" height="120" as="geometry" />
        </mxCell>
        <mxCell id="F6L24uCe4TR0LLmUrcFt-11" value="9" style="rounded=0;whiteSpace=wrap;html=1;fillColor=#fff2cc;strokeColor=#d6b656;fontSize=20;fontStyle=1" vertex="1" parent="1">
          <mxGeometry x="1505" y="300" width="40" height="120" as="geometry" />
        </mxCell>
        <mxCell id="F6L24uCe4TR0LLmUrcFt-12" value="10" style="rounded=0;whiteSpace=wrap;html=1;fillColor=#fff2cc;strokeColor=#d6b656;fontSize=20;fontStyle=1" vertex="1" parent="1">
          <mxGeometry x="1545" y="300" width="40" height="120" as="geometry" />
        </mxCell>
        <mxCell id="F6L24uCe4TR0LLmUrcFt-13" value="11" style="rounded=0;whiteSpace=wrap;html=1;fillColor=#fff2cc;strokeColor=#d6b656;fontSize=20;fontStyle=1" vertex="1" parent="1">
          <mxGeometry x="1585" y="300" width="40" height="120" as="geometry" />
        </mxCell>
        <mxCell id="F6L24uCe4TR0LLmUrcFt-14" value="12" style="rounded=0;whiteSpace=wrap;html=1;fillColor=#fff2cc;strokeColor=#d6b656;fontSize=20;fontStyle=1" vertex="1" parent="1">
          <mxGeometry x="1625" y="300" width="40" height="120" as="geometry" />
        </mxCell>
        <mxCell id="F6L24uCe4TR0LLmUrcFt-15" value="" style="whiteSpace=wrap;html=1;fillColor=none;dashed=1;strokeWidth=3;strokeColor=light-dark(#ce3b3b, #ededed);" vertex="1" parent="1">
          <mxGeometry x="1985" y="600" width="880" height="240" as="geometry" />
        </mxCell>
        <mxCell id="F6L24uCe4TR0LLmUrcFt-16" value="&lt;font style=&quot;font-size: 22px;&quot;&gt;&lt;b&gt;fused_qkv&lt;/b&gt;&lt;/font&gt;" style="text;html=1;align=center;verticalAlign=middle;resizable=0;points=[];autosize=1;strokeColor=none;fillColor=none;" vertex="1" parent="1">
          <mxGeometry x="985" y="230" width="130" height="40" as="geometry" />
        </mxCell>
        <mxCell id="F6L24uCe4TR0LLmUrcFt-17" value="" style="endArrow=none;dashed=1;html=1;dashPattern=1 3;strokeWidth=4;rounded=0;entryX=0.5;entryY=0;entryDx=0;entryDy=0;strokeColor=#FF0000;" edge="1" parent="1" target="F6L24uCe4TR0LLmUrcFt-2">
          <mxGeometry width="50" height="50" relative="1" as="geometry">
            <mxPoint x="1425" y="490" as="sourcePoint" />
            <mxPoint x="1635" y="600" as="targetPoint" />
          </mxGeometry>
        </mxCell>
        <mxCell id="F6L24uCe4TR0LLmUrcFt-18" value="&lt;font style=&quot;font-size: 22px;&quot;&gt;&lt;b&gt;tp2&lt;/b&gt;&lt;/font&gt;" style="text;html=1;align=center;verticalAlign=middle;resizable=0;points=[];autosize=1;strokeColor=none;fillColor=none;" vertex="1" parent="1">
          <mxGeometry x="955" y="745" width="60" height="40" as="geometry" />
        </mxCell>
        <mxCell id="F6L24uCe4TR0LLmUrcFt-19" value="&lt;font style=&quot;font-size: 22px;&quot;&gt;&lt;b&gt;rank0&lt;/b&gt;&lt;/font&gt;" style="text;html=1;align=center;verticalAlign=middle;resizable=0;points=[];autosize=1;strokeColor=none;fillColor=none;" vertex="1" parent="1">
          <mxGeometry x="1145" y="940" width="80" height="40" as="geometry" />
        </mxCell>
        <mxCell id="F6L24uCe4TR0LLmUrcFt-20" value="&lt;font style=&quot;font-size: 22px;&quot;&gt;&lt;b&gt;rank1&lt;/b&gt;&lt;/font&gt;" style="text;html=1;align=center;verticalAlign=middle;resizable=0;points=[];autosize=1;strokeColor=none;fillColor=none;" vertex="1" parent="1">
          <mxGeometry x="1632" y="940" width="80" height="40" as="geometry" />
        </mxCell>
        <mxCell id="F6L24uCe4TR0LLmUrcFt-21" value="&lt;font style=&quot;font-size: 22px;&quot;&gt;&lt;b&gt;tp4&lt;/b&gt;&lt;/font&gt;" style="text;html=1;align=center;verticalAlign=middle;resizable=0;points=[];autosize=1;strokeColor=none;fillColor=none;" vertex="1" parent="1">
          <mxGeometry x="1995" y="610" width="60" height="40" as="geometry" />
        </mxCell>
        <mxCell id="F6L24uCe4TR0LLmUrcFt-22" value="&lt;font style=&quot;font-size: 22px;&quot;&gt;&lt;b&gt;rank0&lt;/b&gt;&lt;/font&gt;" style="text;html=1;align=center;verticalAlign=middle;resizable=0;points=[];autosize=1;strokeColor=none;fillColor=none;" vertex="1" parent="1">
          <mxGeometry x="2090" y="800" width="80" height="40" as="geometry" />
        </mxCell>
        <mxCell id="F6L24uCe4TR0LLmUrcFt-23" value="&lt;font style=&quot;font-size: 22px;&quot;&gt;&lt;b&gt;rank1&lt;/b&gt;&lt;/font&gt;" style="text;html=1;align=center;verticalAlign=middle;resizable=0;points=[];autosize=1;strokeColor=none;fillColor=none;" vertex="1" parent="1">
          <mxGeometry x="2275" y="800" width="80" height="40" as="geometry" />
        </mxCell>
        <mxCell id="F6L24uCe4TR0LLmUrcFt-24" value="&lt;font style=&quot;font-size: 22px;&quot;&gt;&lt;b&gt;rank2&lt;/b&gt;&lt;/font&gt;" style="text;html=1;align=center;verticalAlign=middle;resizable=0;points=[];autosize=1;strokeColor=none;fillColor=none;" vertex="1" parent="1">
          <mxGeometry x="2465" y="800" width="80" height="40" as="geometry" />
        </mxCell>
        <mxCell id="F6L24uCe4TR0LLmUrcFt-25" value="&lt;font style=&quot;font-size: 22px;&quot;&gt;&lt;b&gt;rank3&lt;/b&gt;&lt;/font&gt;" style="text;html=1;align=center;verticalAlign=middle;resizable=0;points=[];autosize=1;strokeColor=none;fillColor=none;" vertex="1" parent="1">
          <mxGeometry x="2682" y="800" width="80" height="40" as="geometry" />
        </mxCell>
        <mxCell id="F6L24uCe4TR0LLmUrcFt-26" value="" style="whiteSpace=wrap;html=1;fillColor=none;dashed=1;strokeWidth=3;strokeColor=light-dark(#ce3b3b, #ededed);" vertex="1" parent="1">
          <mxGeometry x="1976" y="230" width="880" height="250" as="geometry" />
        </mxCell>
        <mxCell id="F6L24uCe4TR0LLmUrcFt-27" style="edgeStyle=orthogonalEdgeStyle;rounded=0;orthogonalLoop=1;jettySize=auto;html=1;exitX=0.5;exitY=1;exitDx=0;exitDy=0;entryX=0.5;entryY=0;entryDx=0;entryDy=0;" edge="1" parent="1" source="F6L24uCe4TR0LLmUrcFt-28">
          <mxGeometry relative="1" as="geometry">
            <mxPoint x="2085" y="670" as="targetPoint" />
          </mxGeometry>
        </mxCell>
        <mxCell id="F6L24uCe4TR0LLmUrcFt-28" value="1" style="rounded=0;whiteSpace=wrap;html=1;fillColor=#fff2cc;strokeColor=#d6b656;fontSize=20;fontStyle=1" vertex="1" parent="1">
          <mxGeometry x="2176" y="300" width="40" height="120" as="geometry" />
        </mxCell>
        <mxCell id="F6L24uCe4TR0LLmUrcFt-29" style="edgeStyle=orthogonalEdgeStyle;rounded=0;orthogonalLoop=1;jettySize=auto;html=1;exitX=0.5;exitY=1;exitDx=0;exitDy=0;entryX=0.5;entryY=0;entryDx=0;entryDy=0;" edge="1" parent="1" source="F6L24uCe4TR0LLmUrcFt-30">
          <mxGeometry relative="1" as="geometry">
            <mxPoint x="2125" y="670" as="targetPoint" />
          </mxGeometry>
        </mxCell>
        <mxCell id="F6L24uCe4TR0LLmUrcFt-30" value="2" style="rounded=0;whiteSpace=wrap;html=1;fillColor=#fff2cc;strokeColor=#d6b656;fontSize=20;fontStyle=1" vertex="1" parent="1">
          <mxGeometry x="2216" y="300" width="40" height="120" as="geometry" />
        </mxCell>
        <mxCell id="F6L24uCe4TR0LLmUrcFt-31" style="edgeStyle=orthogonalEdgeStyle;rounded=0;orthogonalLoop=1;jettySize=auto;html=1;exitX=0.5;exitY=1;exitDx=0;exitDy=0;entryX=0.5;entryY=0;entryDx=0;entryDy=0;" edge="1" parent="1" source="F6L24uCe4TR0LLmUrcFt-32">
          <mxGeometry relative="1" as="geometry">
            <mxPoint x="2165" y="670" as="targetPoint" />
          </mxGeometry>
        </mxCell>
        <mxCell id="F6L24uCe4TR0LLmUrcFt-32" value="3" style="rounded=0;whiteSpace=wrap;html=1;fillColor=#fff2cc;strokeColor=#d6b656;fontSize=20;fontStyle=1" vertex="1" parent="1">
          <mxGeometry x="2256" y="300" width="40" height="120" as="geometry" />
        </mxCell>
        <mxCell id="F6L24uCe4TR0LLmUrcFt-33" value="4" style="rounded=0;whiteSpace=wrap;html=1;fillColor=#fff2cc;strokeColor=#d6b656;fontSize=20;fontStyle=1" vertex="1" parent="1">
          <mxGeometry x="2296" y="300" width="40" height="120" as="geometry" />
        </mxCell>
        <mxCell id="F6L24uCe4TR0LLmUrcFt-34" value="5" style="rounded=0;whiteSpace=wrap;html=1;fillColor=#fff2cc;strokeColor=#d6b656;fontSize=20;fontStyle=1" vertex="1" parent="1">
          <mxGeometry x="2336" y="300" width="40" height="120" as="geometry" />
        </mxCell>
        <mxCell id="F6L24uCe4TR0LLmUrcFt-35" value="6" style="rounded=0;whiteSpace=wrap;html=1;fillColor=#fff2cc;strokeColor=#d6b656;fontSize=20;fontStyle=1" vertex="1" parent="1">
          <mxGeometry x="2376" y="300" width="40" height="120" as="geometry" />
        </mxCell>
        <mxCell id="F6L24uCe4TR0LLmUrcFt-36" value="7" style="rounded=0;whiteSpace=wrap;html=1;fillColor=#fff2cc;strokeColor=#d6b656;fontSize=20;fontStyle=1" vertex="1" parent="1">
          <mxGeometry x="2416" y="300" width="40" height="120" as="geometry" />
        </mxCell>
        <mxCell id="F6L24uCe4TR0LLmUrcFt-37" value="8" style="rounded=0;whiteSpace=wrap;html=1;fillColor=#fff2cc;strokeColor=#d6b656;fontSize=20;fontStyle=1" vertex="1" parent="1">
          <mxGeometry x="2456" y="300" width="40" height="120" as="geometry" />
        </mxCell>
        <mxCell id="F6L24uCe4TR0LLmUrcFt-38" value="9" style="rounded=0;whiteSpace=wrap;html=1;fillColor=#fff2cc;strokeColor=#d6b656;fontSize=20;fontStyle=1" vertex="1" parent="1">
          <mxGeometry x="2496" y="300" width="40" height="120" as="geometry" />
        </mxCell>
        <mxCell id="F6L24uCe4TR0LLmUrcFt-39" value="10" style="rounded=0;whiteSpace=wrap;html=1;fillColor=#fff2cc;strokeColor=#d6b656;fontSize=20;fontStyle=1" vertex="1" parent="1">
          <mxGeometry x="2536" y="300" width="40" height="120" as="geometry" />
        </mxCell>
        <mxCell id="F6L24uCe4TR0LLmUrcFt-40" value="11" style="rounded=0;whiteSpace=wrap;html=1;fillColor=#fff2cc;strokeColor=#d6b656;fontSize=20;fontStyle=1" vertex="1" parent="1">
          <mxGeometry x="2576" y="300" width="40" height="120" as="geometry" />
        </mxCell>
        <mxCell id="F6L24uCe4TR0LLmUrcFt-41" value="12" style="rounded=0;whiteSpace=wrap;html=1;fillColor=#fff2cc;strokeColor=#d6b656;fontSize=20;fontStyle=1" vertex="1" parent="1">
          <mxGeometry x="2616" y="300" width="40" height="120" as="geometry" />
        </mxCell>
        <mxCell id="F6L24uCe4TR0LLmUrcFt-42" value="&lt;font style=&quot;font-size: 22px;&quot;&gt;&lt;b&gt;fused_qkv&lt;/b&gt;&lt;/font&gt;" style="text;html=1;align=center;verticalAlign=middle;resizable=0;points=[];autosize=1;strokeColor=none;fillColor=none;" vertex="1" parent="1">
          <mxGeometry x="1976" y="230" width="130" height="40" as="geometry" />
        </mxCell>
        <mxCell id="F6L24uCe4TR0LLmUrcFt-43" value="" style="endArrow=none;dashed=1;html=1;dashPattern=1 3;strokeWidth=4;rounded=0;entryX=0.5;entryY=0;entryDx=0;entryDy=0;strokeColor=#FF0000;" edge="1" parent="1" target="F6L24uCe4TR0LLmUrcFt-26">
          <mxGeometry width="50" height="50" relative="1" as="geometry">
            <mxPoint x="2416" y="490" as="sourcePoint" />
            <mxPoint x="2626" y="600" as="targetPoint" />
          </mxGeometry>
        </mxCell>
        <mxCell id="F6L24uCe4TR0LLmUrcFt-44" value="" style="shape=table;startSize=0;container=1;collapsible=0;childLayout=tableLayout;fillColor=#fff2cc;strokeColor=#d6b656;fontSize=20;fontStyle=1" vertex="1" parent="1">
          <mxGeometry x="1095" y="780" width="200" height="160" as="geometry" />
        </mxCell>
        <mxCell id="F6L24uCe4TR0LLmUrcFt-45" value="" style="shape=tableRow;horizontal=0;startSize=0;swimlaneHead=0;swimlaneBody=0;strokeColor=inherit;top=0;left=0;bottom=0;right=0;collapsible=0;dropTarget=0;fillColor=none;points=[[0,0.5],[1,0.5]];portConstraint=eastwest;fontSize=20;fontStyle=1" vertex="1" parent="F6L24uCe4TR0LLmUrcFt-44">
          <mxGeometry width="200" height="53" as="geometry" />
        </mxCell>
        <mxCell id="F6L24uCe4TR0LLmUrcFt-46" value="q1" style="shape=partialRectangle;html=1;whiteSpace=wrap;connectable=0;strokeColor=#9673a6;overflow=hidden;fillColor=#e1d5e7;top=0;left=0;bottom=0;right=0;pointerEvents=1;fontSize=20;fontStyle=1" vertex="1" parent="F6L24uCe4TR0LLmUrcFt-45">
          <mxGeometry width="34" height="53" as="geometry">
            <mxRectangle width="34" height="53" as="alternateBounds" />
          </mxGeometry>
        </mxCell>
        <mxCell id="F6L24uCe4TR0LLmUrcFt-47" value="k1" style="shape=partialRectangle;html=1;whiteSpace=wrap;connectable=0;overflow=hidden;top=0;left=0;bottom=0;right=0;pointerEvents=1;fillColor=#e1d5e7;strokeColor=#9673a6;fontSize=20;fontStyle=1" vertex="1" parent="F6L24uCe4TR0LLmUrcFt-45">
          <mxGeometry x="34" width="33" height="53" as="geometry">
            <mxRectangle width="33" height="53" as="alternateBounds" />
          </mxGeometry>
        </mxCell>
        <mxCell id="F6L24uCe4TR0LLmUrcFt-48" value="v1" style="shape=partialRectangle;html=1;whiteSpace=wrap;connectable=0;strokeColor=#9673a6;overflow=hidden;fillColor=#e1d5e7;top=0;left=0;bottom=0;right=0;pointerEvents=1;fontSize=20;fontStyle=1" vertex="1" parent="F6L24uCe4TR0LLmUrcFt-45">
          <mxGeometry x="67" width="34" height="53" as="geometry">
            <mxRectangle width="34" height="53" as="alternateBounds" />
          </mxGeometry>
        </mxCell>
        <mxCell id="F6L24uCe4TR0LLmUrcFt-49" value="q2" style="shape=partialRectangle;html=1;whiteSpace=wrap;connectable=0;strokeColor=#82b366;overflow=hidden;fillColor=#d5e8d4;top=0;left=0;bottom=0;right=0;pointerEvents=1;fontSize=20;fontStyle=1" vertex="1" parent="F6L24uCe4TR0LLmUrcFt-45">
          <mxGeometry x="101" width="32" height="53" as="geometry">
            <mxRectangle width="32" height="53" as="alternateBounds" />
          </mxGeometry>
        </mxCell>
        <mxCell id="F6L24uCe4TR0LLmUrcFt-50" value="k2" style="shape=partialRectangle;html=1;whiteSpace=wrap;connectable=0;strokeColor=#82b366;overflow=hidden;fillColor=#d5e8d4;top=0;left=0;bottom=0;right=0;pointerEvents=1;fontSize=20;fontStyle=1" vertex="1" parent="F6L24uCe4TR0LLmUrcFt-45">
          <mxGeometry x="133" width="34" height="53" as="geometry">
            <mxRectangle width="34" height="53" as="alternateBounds" />
          </mxGeometry>
        </mxCell>
        <mxCell id="F6L24uCe4TR0LLmUrcFt-51" value="v2" style="shape=partialRectangle;html=1;whiteSpace=wrap;connectable=0;strokeColor=#82b366;overflow=hidden;fillColor=#d5e8d4;top=0;left=0;bottom=0;right=0;pointerEvents=1;fontSize=20;fontStyle=1" vertex="1" parent="F6L24uCe4TR0LLmUrcFt-45">
          <mxGeometry x="167" width="33" height="53" as="geometry">
            <mxRectangle width="33" height="53" as="alternateBounds" />
          </mxGeometry>
        </mxCell>
        <mxCell id="F6L24uCe4TR0LLmUrcFt-52" value="" style="shape=tableRow;horizontal=0;startSize=0;swimlaneHead=0;swimlaneBody=0;strokeColor=inherit;top=0;left=0;bottom=0;right=0;collapsible=0;dropTarget=0;fillColor=none;points=[[0,0.5],[1,0.5]];portConstraint=eastwest;fontSize=20;fontStyle=1" vertex="1" parent="F6L24uCe4TR0LLmUrcFt-44">
          <mxGeometry y="53" width="200" height="54" as="geometry" />
        </mxCell>
        <mxCell id="F6L24uCe4TR0LLmUrcFt-53" value="" style="shape=partialRectangle;html=1;whiteSpace=wrap;connectable=0;strokeColor=inherit;overflow=hidden;fillColor=none;top=0;left=0;bottom=0;right=0;pointerEvents=1;fontSize=20;fontStyle=1" vertex="1" parent="F6L24uCe4TR0LLmUrcFt-52">
          <mxGeometry width="34" height="54" as="geometry">
            <mxRectangle width="34" height="54" as="alternateBounds" />
          </mxGeometry>
        </mxCell>
        <mxCell id="F6L24uCe4TR0LLmUrcFt-54" value="" style="shape=partialRectangle;html=1;whiteSpace=wrap;connectable=0;strokeColor=inherit;overflow=hidden;fillColor=none;top=0;left=0;bottom=0;right=0;pointerEvents=1;fontSize=20;fontStyle=1" vertex="1" parent="F6L24uCe4TR0LLmUrcFt-52">
          <mxGeometry x="34" width="33" height="54" as="geometry">
            <mxRectangle width="33" height="54" as="alternateBounds" />
          </mxGeometry>
        </mxCell>
        <mxCell id="F6L24uCe4TR0LLmUrcFt-55" value="" style="shape=partialRectangle;html=1;whiteSpace=wrap;connectable=0;strokeColor=inherit;overflow=hidden;fillColor=none;top=0;left=0;bottom=0;right=0;pointerEvents=1;fontSize=20;fontStyle=1" vertex="1" parent="F6L24uCe4TR0LLmUrcFt-52">
          <mxGeometry x="67" width="34" height="54" as="geometry">
            <mxRectangle width="34" height="54" as="alternateBounds" />
          </mxGeometry>
        </mxCell>
        <mxCell id="F6L24uCe4TR0LLmUrcFt-56" value="" style="shape=partialRectangle;html=1;whiteSpace=wrap;connectable=0;strokeColor=inherit;overflow=hidden;fillColor=none;top=0;left=0;bottom=0;right=0;pointerEvents=1;fontSize=20;fontStyle=1" vertex="1" parent="F6L24uCe4TR0LLmUrcFt-52">
          <mxGeometry x="101" width="32" height="54" as="geometry">
            <mxRectangle width="32" height="54" as="alternateBounds" />
          </mxGeometry>
        </mxCell>
        <mxCell id="F6L24uCe4TR0LLmUrcFt-57" value="" style="shape=partialRectangle;html=1;whiteSpace=wrap;connectable=0;strokeColor=inherit;overflow=hidden;fillColor=none;top=0;left=0;bottom=0;right=0;pointerEvents=1;fontSize=20;fontStyle=1" vertex="1" parent="F6L24uCe4TR0LLmUrcFt-52">
          <mxGeometry x="133" width="34" height="54" as="geometry">
            <mxRectangle width="34" height="54" as="alternateBounds" />
          </mxGeometry>
        </mxCell>
        <mxCell id="F6L24uCe4TR0LLmUrcFt-58" value="" style="shape=partialRectangle;html=1;whiteSpace=wrap;connectable=0;strokeColor=inherit;overflow=hidden;fillColor=none;top=0;left=0;bottom=0;right=0;pointerEvents=1;fontSize=20;fontStyle=1" vertex="1" parent="F6L24uCe4TR0LLmUrcFt-52">
          <mxGeometry x="167" width="33" height="54" as="geometry">
            <mxRectangle width="33" height="54" as="alternateBounds" />
          </mxGeometry>
        </mxCell>
        <mxCell id="F6L24uCe4TR0LLmUrcFt-59" value="" style="shape=tableRow;horizontal=0;startSize=0;swimlaneHead=0;swimlaneBody=0;strokeColor=inherit;top=0;left=0;bottom=0;right=0;collapsible=0;dropTarget=0;fillColor=none;points=[[0,0.5],[1,0.5]];portConstraint=eastwest;fontSize=20;fontStyle=1" vertex="1" parent="F6L24uCe4TR0LLmUrcFt-44">
          <mxGeometry y="107" width="200" height="53" as="geometry" />
        </mxCell>
        <mxCell id="F6L24uCe4TR0LLmUrcFt-60" value="" style="shape=partialRectangle;html=1;whiteSpace=wrap;connectable=0;strokeColor=inherit;overflow=hidden;fillColor=none;top=0;left=0;bottom=0;right=0;pointerEvents=1;fontSize=20;fontStyle=1" vertex="1" parent="F6L24uCe4TR0LLmUrcFt-59">
          <mxGeometry width="34" height="53" as="geometry">
            <mxRectangle width="34" height="53" as="alternateBounds" />
          </mxGeometry>
        </mxCell>
        <mxCell id="F6L24uCe4TR0LLmUrcFt-61" value="" style="shape=partialRectangle;html=1;whiteSpace=wrap;connectable=0;strokeColor=inherit;overflow=hidden;fillColor=none;top=0;left=0;bottom=0;right=0;pointerEvents=1;fontSize=20;fontStyle=1" vertex="1" parent="F6L24uCe4TR0LLmUrcFt-59">
          <mxGeometry x="34" width="33" height="53" as="geometry">
            <mxRectangle width="33" height="53" as="alternateBounds" />
          </mxGeometry>
        </mxCell>
        <mxCell id="F6L24uCe4TR0LLmUrcFt-62" value="" style="shape=partialRectangle;html=1;whiteSpace=wrap;connectable=0;strokeColor=inherit;overflow=hidden;fillColor=none;top=0;left=0;bottom=0;right=0;pointerEvents=1;fontSize=20;fontStyle=1" vertex="1" parent="F6L24uCe4TR0LLmUrcFt-59">
          <mxGeometry x="67" width="34" height="53" as="geometry">
            <mxRectangle width="34" height="53" as="alternateBounds" />
          </mxGeometry>
        </mxCell>
        <mxCell id="F6L24uCe4TR0LLmUrcFt-63" value="" style="shape=partialRectangle;html=1;whiteSpace=wrap;connectable=0;strokeColor=inherit;overflow=hidden;fillColor=none;top=0;left=0;bottom=0;right=0;pointerEvents=1;fontSize=20;fontStyle=1" vertex="1" parent="F6L24uCe4TR0LLmUrcFt-59">
          <mxGeometry x="101" width="32" height="53" as="geometry">
            <mxRectangle width="32" height="53" as="alternateBounds" />
          </mxGeometry>
        </mxCell>
        <mxCell id="F6L24uCe4TR0LLmUrcFt-64" value="" style="shape=partialRectangle;html=1;whiteSpace=wrap;connectable=0;strokeColor=inherit;overflow=hidden;fillColor=none;top=0;left=0;bottom=0;right=0;pointerEvents=1;fontSize=20;fontStyle=1" vertex="1" parent="F6L24uCe4TR0LLmUrcFt-59">
          <mxGeometry x="133" width="34" height="53" as="geometry">
            <mxRectangle width="34" height="53" as="alternateBounds" />
          </mxGeometry>
        </mxCell>
        <mxCell id="F6L24uCe4TR0LLmUrcFt-65" value="" style="shape=partialRectangle;html=1;whiteSpace=wrap;connectable=0;strokeColor=inherit;overflow=hidden;fillColor=none;top=0;left=0;bottom=0;right=0;pointerEvents=1;fontSize=20;fontStyle=1" vertex="1" parent="F6L24uCe4TR0LLmUrcFt-59">
          <mxGeometry x="167" width="33" height="53" as="geometry">
            <mxRectangle width="33" height="53" as="alternateBounds" />
          </mxGeometry>
        </mxCell>
        <mxCell id="F6L24uCe4TR0LLmUrcFt-66" value="" style="shape=curlyBracket;whiteSpace=wrap;html=1;rounded=1;labelPosition=left;verticalLabelPosition=middle;align=right;verticalAlign=middle;" vertex="1" parent="1">
          <mxGeometry x="1145" y="300" width="20" height="120" as="geometry" />
        </mxCell>
        <mxCell id="F6L24uCe4TR0LLmUrcFt-67" value="&lt;font style=&quot;font-size: 22px;&quot;&gt;&lt;b&gt;hidden_state&lt;/b&gt;&lt;/font&gt;" style="text;html=1;align=center;verticalAlign=middle;resizable=0;points=[];autosize=1;strokeColor=none;fillColor=none;" vertex="1" parent="1">
          <mxGeometry x="990" y="335" width="160" height="40" as="geometry" />
        </mxCell>
        <mxCell id="F6L24uCe4TR0LLmUrcFt-68" value="" style="shape=curlyBracket;whiteSpace=wrap;html=1;rounded=1;labelPosition=left;verticalLabelPosition=middle;align=right;verticalAlign=middle;rotation=-90;" vertex="1" parent="1">
          <mxGeometry x="1415" y="200" width="20" height="480" as="geometry" />
        </mxCell>
        <mxCell id="F6L24uCe4TR0LLmUrcFt-69" value="&lt;font style=&quot;font-size: 22px;&quot;&gt;&lt;b&gt;num_head*head_dim+k_v_nums*head_dim*2&lt;/b&gt;&lt;/font&gt;" style="text;html=1;align=center;verticalAlign=middle;resizable=0;points=[];autosize=1;strokeColor=none;fillColor=none;" vertex="1" parent="1">
          <mxGeometry x="1160" y="440" width="500" height="40" as="geometry" />
        </mxCell>
        <mxCell id="F6L24uCe4TR0LLmUrcFt-70" value="&lt;font style=&quot;font-size: 22px;&quot;&gt;&lt;b&gt;head_dim=1 ; num_head=4 ;&amp;nbsp;&lt;/b&gt;&lt;b&gt;num_kv_heads&lt;/b&gt;&lt;b&gt;=4&lt;/b&gt;&lt;/font&gt;" style="text;html=1;align=center;verticalAlign=middle;resizable=0;points=[];autosize=1;strokeColor=none;fillColor=none;" vertex="1" parent="1">
          <mxGeometry x="1177" y="540" width="510" height="40" as="geometry" />
        </mxCell>
        <mxCell id="F6L24uCe4TR0LLmUrcFt-71" value="" style="group;fontSize=20;fontStyle=1" vertex="1" connectable="0" parent="1">
          <mxGeometry x="1532" y="780" width="243" height="160" as="geometry" />
        </mxCell>
        <mxCell id="F6L24uCe4TR0LLmUrcFt-72" value="7" style="rounded=0;whiteSpace=wrap;html=1;fillColor=#fff2cc;strokeColor=#d6b656;fontSize=20;fontStyle=1" vertex="1" parent="F6L24uCe4TR0LLmUrcFt-71">
          <mxGeometry width="39.99999999999999" height="160" as="geometry" />
        </mxCell>
        <mxCell id="F6L24uCe4TR0LLmUrcFt-73" value="8" style="rounded=0;whiteSpace=wrap;html=1;fillColor=#fff2cc;strokeColor=#d6b656;fontSize=20;fontStyle=1" vertex="1" parent="F6L24uCe4TR0LLmUrcFt-71">
          <mxGeometry x="39.99999999999999" width="39.99999999999999" height="160" as="geometry" />
        </mxCell>
        <mxCell id="F6L24uCe4TR0LLmUrcFt-74" value="9" style="rounded=0;whiteSpace=wrap;html=1;fillColor=#fff2cc;strokeColor=#d6b656;fontSize=20;fontStyle=1" vertex="1" parent="F6L24uCe4TR0LLmUrcFt-71">
          <mxGeometry x="79.99999999999999" width="43" height="160" as="geometry" />
        </mxCell>
        <mxCell id="F6L24uCe4TR0LLmUrcFt-75" value="10" style="rounded=0;whiteSpace=wrap;html=1;fillColor=#fff2cc;strokeColor=#d6b656;fontSize=20;fontStyle=1" vertex="1" parent="F6L24uCe4TR0LLmUrcFt-71">
          <mxGeometry x="122.99999999999999" width="39.99999999999999" height="160" as="geometry" />
        </mxCell>
        <mxCell id="F6L24uCe4TR0LLmUrcFt-76" value="11" style="rounded=0;whiteSpace=wrap;html=1;fillColor=#fff2cc;strokeColor=#d6b656;fontSize=20;fontStyle=1" vertex="1" parent="F6L24uCe4TR0LLmUrcFt-71">
          <mxGeometry x="163" width="39.99999999999999" height="160" as="geometry" />
        </mxCell>
        <mxCell id="F6L24uCe4TR0LLmUrcFt-77" value="12" style="rounded=0;whiteSpace=wrap;html=1;fillColor=#fff2cc;strokeColor=#d6b656;fontSize=20;fontStyle=1" vertex="1" parent="F6L24uCe4TR0LLmUrcFt-71">
          <mxGeometry x="203" width="39.99999999999999" height="160" as="geometry" />
        </mxCell>
        <mxCell id="F6L24uCe4TR0LLmUrcFt-78" value="" style="shape=singleArrow;direction=south;whiteSpace=wrap;html=1;fillColor=#e1d5e7;strokeColor=#9673a6;" vertex="1" parent="1">
          <mxGeometry x="1385" y="590" width="60" height="125" as="geometry" />
        </mxCell>
        <mxCell id="F6L24uCe4TR0LLmUrcFt-79" value="&lt;font style=&quot;font-size: 22px;&quot;&gt;&lt;b&gt;先切分，后定义q_state、k_state、v_state&lt;/b&gt;&lt;/font&gt;" style="text;html=1;align=center;verticalAlign=middle;resizable=0;points=[];autosize=1;strokeColor=none;fillColor=none;" vertex="1" parent="1">
          <mxGeometry x="1435" y="625" width="450" height="40" as="geometry" />
        </mxCell>
        <mxCell id="F6L24uCe4TR0LLmUrcFt-80" value="&lt;font style=&quot;font-size: 22px;&quot;&gt;&lt;b&gt;num_head=2 ;&amp;nbsp;&lt;/b&gt;&lt;b&gt;num_kv_heads&lt;/b&gt;&lt;b&gt;=2&lt;/b&gt;&lt;/font&gt;" style="text;html=1;align=center;verticalAlign=middle;resizable=0;points=[];autosize=1;strokeColor=none;fillColor=none;" vertex="1" parent="1">
          <mxGeometry x="1025" y="1000" width="360" height="40" as="geometry" />
        </mxCell>
        <mxCell id="F6L24uCe4TR0LLmUrcFt-81" value="&lt;font style=&quot;font-size: 22px;&quot;&gt;&lt;b&gt;num_head=2 ;&amp;nbsp;&lt;/b&gt;&lt;b&gt;num_kv_heads&lt;/b&gt;&lt;b&gt;=2&lt;/b&gt;&lt;/font&gt;" style="text;html=1;align=center;verticalAlign=middle;resizable=0;points=[];autosize=1;strokeColor=none;fillColor=none;" vertex="1" parent="1">
          <mxGeometry x="1492" y="1000" width="360" height="40" as="geometry" />
        </mxCell>
        <mxCell id="F6L24uCe4TR0LLmUrcFt-82" value="" style="shape=table;startSize=0;container=1;collapsible=0;childLayout=tableLayout;" vertex="1" parent="1">
          <mxGeometry x="605" y="830" width="170" height="70" as="geometry" />
        </mxCell>
        <mxCell id="F6L24uCe4TR0LLmUrcFt-83" value="" style="shape=tableRow;horizontal=0;startSize=0;swimlaneHead=0;swimlaneBody=0;strokeColor=inherit;top=0;left=0;bottom=0;right=0;collapsible=0;dropTarget=0;fillColor=none;points=[[0,0.5],[1,0.5]];portConstraint=eastwest;" vertex="1" parent="F6L24uCe4TR0LLmUrcFt-82">
          <mxGeometry width="170" height="35" as="geometry" />
        </mxCell>
        <mxCell id="F6L24uCe4TR0LLmUrcFt-84" value="" style="shape=partialRectangle;html=1;whiteSpace=wrap;connectable=0;strokeColor=inherit;overflow=hidden;fillColor=none;top=0;left=0;bottom=0;right=0;pointerEvents=1;" vertex="1" parent="F6L24uCe4TR0LLmUrcFt-83">
          <mxGeometry width="56" height="35" as="geometry">
            <mxRectangle width="56" height="35" as="alternateBounds" />
          </mxGeometry>
        </mxCell>
        <mxCell id="F6L24uCe4TR0LLmUrcFt-85" value="" style="shape=partialRectangle;html=1;whiteSpace=wrap;connectable=0;strokeColor=inherit;overflow=hidden;fillColor=none;top=0;left=0;bottom=0;right=0;pointerEvents=1;" vertex="1" parent="F6L24uCe4TR0LLmUrcFt-83">
          <mxGeometry x="56" width="58" height="35" as="geometry">
            <mxRectangle width="58" height="35" as="alternateBounds" />
          </mxGeometry>
        </mxCell>
        <mxCell id="F6L24uCe4TR0LLmUrcFt-86" value="" style="shape=partialRectangle;html=1;whiteSpace=wrap;connectable=0;strokeColor=inherit;overflow=hidden;fillColor=none;top=0;left=0;bottom=0;right=0;pointerEvents=1;" vertex="1" parent="F6L24uCe4TR0LLmUrcFt-83">
          <mxGeometry x="114" width="56" height="35" as="geometry">
            <mxRectangle width="56" height="35" as="alternateBounds" />
          </mxGeometry>
        </mxCell>
        <mxCell id="F6L24uCe4TR0LLmUrcFt-87" value="" style="shape=tableRow;horizontal=0;startSize=0;swimlaneHead=0;swimlaneBody=0;strokeColor=inherit;top=0;left=0;bottom=0;right=0;collapsible=0;dropTarget=0;fillColor=none;points=[[0,0.5],[1,0.5]];portConstraint=eastwest;" vertex="1" parent="F6L24uCe4TR0LLmUrcFt-82">
          <mxGeometry y="35" width="170" height="35" as="geometry" />
        </mxCell>
        <mxCell id="F6L24uCe4TR0LLmUrcFt-88" value="" style="shape=partialRectangle;html=1;whiteSpace=wrap;connectable=0;strokeColor=inherit;overflow=hidden;fillColor=none;top=0;left=0;bottom=0;right=0;pointerEvents=1;" vertex="1" parent="F6L24uCe4TR0LLmUrcFt-87">
          <mxGeometry width="56" height="35" as="geometry">
            <mxRectangle width="56" height="35" as="alternateBounds" />
          </mxGeometry>
        </mxCell>
        <mxCell id="F6L24uCe4TR0LLmUrcFt-89" value="" style="shape=partialRectangle;html=1;whiteSpace=wrap;connectable=0;strokeColor=inherit;overflow=hidden;fillColor=none;top=0;left=0;bottom=0;right=0;pointerEvents=1;" vertex="1" parent="F6L24uCe4TR0LLmUrcFt-87">
          <mxGeometry x="56" width="58" height="35" as="geometry">
            <mxRectangle width="58" height="35" as="alternateBounds" />
          </mxGeometry>
        </mxCell>
        <mxCell id="F6L24uCe4TR0LLmUrcFt-90" value="" style="shape=partialRectangle;html=1;whiteSpace=wrap;connectable=0;strokeColor=inherit;overflow=hidden;fillColor=none;top=0;left=0;bottom=0;right=0;pointerEvents=1;" vertex="1" parent="F6L24uCe4TR0LLmUrcFt-87">
          <mxGeometry x="114" width="56" height="35" as="geometry">
            <mxRectangle width="56" height="35" as="alternateBounds" />
          </mxGeometry>
        </mxCell>
        <mxCell id="F6L24uCe4TR0LLmUrcFt-91" style="edgeStyle=orthogonalEdgeStyle;rounded=0;orthogonalLoop=1;jettySize=auto;html=1;exitX=0;exitY=0.5;exitDx=0;exitDy=0;entryX=0.474;entryY=-0.006;entryDx=0;entryDy=0;entryPerimeter=0;" edge="1" parent="1" source="F6L24uCe4TR0LLmUrcFt-45" target="F6L24uCe4TR0LLmUrcFt-83">
          <mxGeometry relative="1" as="geometry" />
        </mxCell>
        <mxCell id="F6L24uCe4TR0LLmUrcFt-92" value="&lt;font style=&quot;font-size: 22px;&quot;&gt;&lt;b&gt;对最后一维reshape&lt;/b&gt;&lt;/font&gt;" style="text;html=1;align=center;verticalAlign=middle;resizable=0;points=[];autosize=1;strokeColor=none;fillColor=none;" vertex="1" parent="1">
          <mxGeometry x="695" y="760" width="220" height="40" as="geometry" />
        </mxCell>
        <mxCell id="F6L24uCe4TR0LLmUrcFt-93" value="" style="shape=curlyBracket;whiteSpace=wrap;html=1;rounded=1;labelPosition=left;verticalLabelPosition=middle;align=right;verticalAlign=middle;" vertex="1" parent="1">
          <mxGeometry x="575" y="825" width="20" height="80" as="geometry" />
        </mxCell>
        <mxCell id="F6L24uCe4TR0LLmUrcFt-94" value="" style="shape=singleArrow;direction=south;whiteSpace=wrap;html=1;fillColor=#e1d5e7;strokeColor=#9673a6;" vertex="1" parent="1">
          <mxGeometry x="660" y="905" width="45" height="70" as="geometry" />
        </mxCell>
        <mxCell id="F6L24uCe4TR0LLmUrcFt-95" value="&lt;font style=&quot;font-size: 22px;&quot;&gt;&lt;b&gt;最后一维切成三份&lt;/b&gt;&lt;/font&gt;" style="text;html=1;align=center;verticalAlign=middle;resizable=0;points=[];autosize=1;strokeColor=none;fillColor=none;" vertex="1" parent="1">
          <mxGeometry x="695" y="910" width="200" height="40" as="geometry" />
        </mxCell>
        <mxCell id="F6L24uCe4TR0LLmUrcFt-96" style="edgeStyle=orthogonalEdgeStyle;rounded=0;orthogonalLoop=1;jettySize=auto;html=1;exitX=1;exitY=0.5;exitDx=0;exitDy=0;entryX=0;entryY=0.25;entryDx=0;entryDy=0;" edge="1" parent="1" source="F6L24uCe4TR0LLmUrcFt-97" target="F6L24uCe4TR0LLmUrcFt-44">
          <mxGeometry relative="1" as="geometry" />
        </mxCell>
        <mxCell id="F6L24uCe4TR0LLmUrcFt-97" value="" style="shape=table;startSize=0;container=1;collapsible=0;childLayout=tableLayout;fontSize=20;fontStyle=1" vertex="1" parent="1">
          <mxGeometry x="605" y="990" width="170" height="70" as="geometry" />
        </mxCell>
        <mxCell id="F6L24uCe4TR0LLmUrcFt-98" value="" style="shape=tableRow;horizontal=0;startSize=0;swimlaneHead=0;swimlaneBody=0;strokeColor=inherit;top=0;left=0;bottom=0;right=0;collapsible=0;dropTarget=0;fillColor=none;points=[[0,0.5],[1,0.5]];portConstraint=eastwest;fontSize=20;fontStyle=1" vertex="1" parent="F6L24uCe4TR0LLmUrcFt-97">
          <mxGeometry width="170" height="35" as="geometry" />
        </mxCell>
        <mxCell id="F6L24uCe4TR0LLmUrcFt-99" value="q1" style="shape=partialRectangle;html=1;whiteSpace=wrap;connectable=0;strokeColor=#d79b00;overflow=hidden;fillColor=#ffe6cc;top=0;left=0;bottom=0;right=0;pointerEvents=1;fontSize=20;fontStyle=1" vertex="1" parent="F6L24uCe4TR0LLmUrcFt-98">
          <mxGeometry width="56" height="35" as="geometry">
            <mxRectangle width="56" height="35" as="alternateBounds" />
          </mxGeometry>
        </mxCell>
        <mxCell id="F6L24uCe4TR0LLmUrcFt-100" value="k1" style="shape=partialRectangle;html=1;whiteSpace=wrap;connectable=0;strokeColor=#0e8088;overflow=hidden;fillColor=#b0e3e6;top=0;left=0;bottom=0;right=0;pointerEvents=1;fontSize=20;fontStyle=1" vertex="1" parent="F6L24uCe4TR0LLmUrcFt-98">
          <mxGeometry x="56" width="58" height="35" as="geometry">
            <mxRectangle width="58" height="35" as="alternateBounds" />
          </mxGeometry>
        </mxCell>
        <mxCell id="F6L24uCe4TR0LLmUrcFt-101" value="v1" style="shape=partialRectangle;html=1;whiteSpace=wrap;connectable=0;strokeColor=#ae4132;overflow=hidden;fillColor=#fad9d5;top=0;left=0;bottom=0;right=0;pointerEvents=1;fontSize=20;fontStyle=1" vertex="1" parent="F6L24uCe4TR0LLmUrcFt-98">
          <mxGeometry x="114" width="56" height="35" as="geometry">
            <mxRectangle width="56" height="35" as="alternateBounds" />
          </mxGeometry>
        </mxCell>
        <mxCell id="F6L24uCe4TR0LLmUrcFt-102" value="" style="shape=tableRow;horizontal=0;startSize=0;swimlaneHead=0;swimlaneBody=0;strokeColor=inherit;top=0;left=0;bottom=0;right=0;collapsible=0;dropTarget=0;fillColor=none;points=[[0,0.5],[1,0.5]];portConstraint=eastwest;fontSize=20;fontStyle=1" vertex="1" parent="F6L24uCe4TR0LLmUrcFt-97">
          <mxGeometry y="35" width="170" height="35" as="geometry" />
        </mxCell>
        <mxCell id="F6L24uCe4TR0LLmUrcFt-103" value="q2" style="shape=partialRectangle;html=1;whiteSpace=wrap;connectable=0;strokeColor=#d79b00;overflow=hidden;fillColor=#ffe6cc;top=0;left=0;bottom=0;right=0;pointerEvents=1;fontSize=20;fontStyle=1" vertex="1" parent="F6L24uCe4TR0LLmUrcFt-102">
          <mxGeometry width="56" height="35" as="geometry">
            <mxRectangle width="56" height="35" as="alternateBounds" />
          </mxGeometry>
        </mxCell>
        <mxCell id="F6L24uCe4TR0LLmUrcFt-104" value="k2" style="shape=partialRectangle;html=1;whiteSpace=wrap;connectable=0;strokeColor=#0e8088;overflow=hidden;fillColor=#b0e3e6;top=0;left=0;bottom=0;right=0;pointerEvents=1;fontSize=20;fontStyle=1" vertex="1" parent="F6L24uCe4TR0LLmUrcFt-102">
          <mxGeometry x="56" width="58" height="35" as="geometry">
            <mxRectangle width="58" height="35" as="alternateBounds" />
          </mxGeometry>
        </mxCell>
        <mxCell id="F6L24uCe4TR0LLmUrcFt-105" value="v2" style="shape=partialRectangle;html=1;whiteSpace=wrap;connectable=0;strokeColor=#ae4132;overflow=hidden;fillColor=#fad9d5;top=0;left=0;bottom=0;right=0;pointerEvents=1;fontSize=20;fontStyle=1" vertex="1" parent="F6L24uCe4TR0LLmUrcFt-102">
          <mxGeometry x="114" width="56" height="35" as="geometry">
            <mxRectangle width="56" height="35" as="alternateBounds" />
          </mxGeometry>
        </mxCell>
        <mxCell id="F6L24uCe4TR0LLmUrcFt-106" value="" style="endArrow=none;dashed=1;html=1;dashPattern=1 3;strokeWidth=4;rounded=0;entryX=0.5;entryY=0;entryDx=0;entryDy=0;strokeColor=#FF0000;" edge="1" parent="1">
          <mxGeometry width="50" height="50" relative="1" as="geometry">
            <mxPoint x="660" y="1120" as="sourcePoint" />
            <mxPoint x="660" y="975" as="targetPoint" />
          </mxGeometry>
        </mxCell>
        <mxCell id="F6L24uCe4TR0LLmUrcFt-107" value="" style="endArrow=none;dashed=1;html=1;dashPattern=1 3;strokeWidth=4;rounded=0;entryX=0.5;entryY=0;entryDx=0;entryDy=0;strokeColor=#FF0000;" edge="1" parent="1">
          <mxGeometry width="50" height="50" relative="1" as="geometry">
            <mxPoint x="715" y="1120" as="sourcePoint" />
            <mxPoint x="715" y="975" as="targetPoint" />
          </mxGeometry>
        </mxCell>
        <mxCell id="F6L24uCe4TR0LLmUrcFt-108" value="&lt;font style=&quot;font-size: 22px;&quot;&gt;&lt;b&gt;展平后&lt;/b&gt;&lt;/font&gt;" style="text;html=1;align=center;verticalAlign=middle;resizable=0;points=[];autosize=1;strokeColor=none;fillColor=none;" vertex="1" parent="1">
          <mxGeometry x="805" y="1030" width="90" height="40" as="geometry" />
        </mxCell>
        <mxCell id="F6L24uCe4TR0LLmUrcFt-109" value="" style="shape=table;startSize=0;container=1;collapsible=0;childLayout=tableLayout;fillColor=#fff2cc;strokeColor=#d6b656;fontSize=20;fontStyle=1" vertex="1" parent="1">
          <mxGeometry x="2065" y="670" width="130" height="120" as="geometry" />
        </mxCell>
        <mxCell id="F6L24uCe4TR0LLmUrcFt-110" value="" style="shape=tableRow;horizontal=0;startSize=0;swimlaneHead=0;swimlaneBody=0;strokeColor=inherit;top=0;left=0;bottom=0;right=0;collapsible=0;dropTarget=0;fillColor=none;points=[[0,0.5],[1,0.5]];portConstraint=eastwest;fontSize=20;fontStyle=1" vertex="1" parent="F6L24uCe4TR0LLmUrcFt-109">
          <mxGeometry width="130" height="40" as="geometry" />
        </mxCell>
        <mxCell id="F6L24uCe4TR0LLmUrcFt-111" value="q1" style="shape=partialRectangle;html=1;whiteSpace=wrap;connectable=0;strokeColor=#666666;overflow=hidden;fillColor=#f5f5f5;top=0;left=0;bottom=0;right=0;pointerEvents=1;fontColor=#333333;fontSize=20;fontStyle=1" vertex="1" parent="F6L24uCe4TR0LLmUrcFt-110">
          <mxGeometry width="44" height="40" as="geometry">
            <mxRectangle width="44" height="40" as="alternateBounds" />
          </mxGeometry>
        </mxCell>
        <mxCell id="F6L24uCe4TR0LLmUrcFt-112" value="k1" style="shape=partialRectangle;html=1;whiteSpace=wrap;connectable=0;overflow=hidden;top=0;left=0;bottom=0;right=0;pointerEvents=1;fillColor=#f5f5f5;fontColor=#333333;strokeColor=#666666;fontSize=20;fontStyle=1" vertex="1" parent="F6L24uCe4TR0LLmUrcFt-110">
          <mxGeometry x="44" width="42" height="40" as="geometry">
            <mxRectangle width="42" height="40" as="alternateBounds" />
          </mxGeometry>
        </mxCell>
        <mxCell id="F6L24uCe4TR0LLmUrcFt-113" value="v1" style="shape=partialRectangle;html=1;whiteSpace=wrap;connectable=0;strokeColor=#666666;overflow=hidden;fillColor=#f5f5f5;top=0;left=0;bottom=0;right=0;pointerEvents=1;fontColor=#333333;fontSize=20;fontStyle=1" vertex="1" parent="F6L24uCe4TR0LLmUrcFt-110">
          <mxGeometry x="86" width="44" height="40" as="geometry">
            <mxRectangle width="44" height="40" as="alternateBounds" />
          </mxGeometry>
        </mxCell>
        <mxCell id="F6L24uCe4TR0LLmUrcFt-114" value="" style="shape=tableRow;horizontal=0;startSize=0;swimlaneHead=0;swimlaneBody=0;strokeColor=inherit;top=0;left=0;bottom=0;right=0;collapsible=0;dropTarget=0;fillColor=none;points=[[0,0.5],[1,0.5]];portConstraint=eastwest;fontSize=20;fontStyle=1" vertex="1" parent="F6L24uCe4TR0LLmUrcFt-109">
          <mxGeometry y="40" width="130" height="40" as="geometry" />
        </mxCell>
        <mxCell id="F6L24uCe4TR0LLmUrcFt-115" value="" style="shape=partialRectangle;html=1;whiteSpace=wrap;connectable=0;strokeColor=inherit;overflow=hidden;fillColor=none;top=0;left=0;bottom=0;right=0;pointerEvents=1;fontSize=20;fontStyle=1" vertex="1" parent="F6L24uCe4TR0LLmUrcFt-114">
          <mxGeometry width="44" height="40" as="geometry">
            <mxRectangle width="44" height="40" as="alternateBounds" />
          </mxGeometry>
        </mxCell>
        <mxCell id="F6L24uCe4TR0LLmUrcFt-116" value="" style="shape=partialRectangle;html=1;whiteSpace=wrap;connectable=0;strokeColor=inherit;overflow=hidden;fillColor=none;top=0;left=0;bottom=0;right=0;pointerEvents=1;fontSize=20;fontStyle=1" vertex="1" parent="F6L24uCe4TR0LLmUrcFt-114">
          <mxGeometry x="44" width="42" height="40" as="geometry">
            <mxRectangle width="42" height="40" as="alternateBounds" />
          </mxGeometry>
        </mxCell>
        <mxCell id="F6L24uCe4TR0LLmUrcFt-117" value="" style="shape=partialRectangle;html=1;whiteSpace=wrap;connectable=0;strokeColor=inherit;overflow=hidden;fillColor=none;top=0;left=0;bottom=0;right=0;pointerEvents=1;fontSize=20;fontStyle=1" vertex="1" parent="F6L24uCe4TR0LLmUrcFt-114">
          <mxGeometry x="86" width="44" height="40" as="geometry">
            <mxRectangle width="44" height="40" as="alternateBounds" />
          </mxGeometry>
        </mxCell>
        <mxCell id="F6L24uCe4TR0LLmUrcFt-118" value="" style="shape=tableRow;horizontal=0;startSize=0;swimlaneHead=0;swimlaneBody=0;strokeColor=inherit;top=0;left=0;bottom=0;right=0;collapsible=0;dropTarget=0;fillColor=none;points=[[0,0.5],[1,0.5]];portConstraint=eastwest;fontSize=20;fontStyle=1" vertex="1" parent="F6L24uCe4TR0LLmUrcFt-109">
          <mxGeometry y="80" width="130" height="40" as="geometry" />
        </mxCell>
        <mxCell id="F6L24uCe4TR0LLmUrcFt-119" value="" style="shape=partialRectangle;html=1;whiteSpace=wrap;connectable=0;strokeColor=inherit;overflow=hidden;fillColor=none;top=0;left=0;bottom=0;right=0;pointerEvents=1;fontSize=20;fontStyle=1" vertex="1" parent="F6L24uCe4TR0LLmUrcFt-118">
          <mxGeometry width="44" height="40" as="geometry">
            <mxRectangle width="44" height="40" as="alternateBounds" />
          </mxGeometry>
        </mxCell>
        <mxCell id="F6L24uCe4TR0LLmUrcFt-120" value="" style="shape=partialRectangle;html=1;whiteSpace=wrap;connectable=0;strokeColor=inherit;overflow=hidden;fillColor=none;top=0;left=0;bottom=0;right=0;pointerEvents=1;fontSize=20;fontStyle=1" vertex="1" parent="F6L24uCe4TR0LLmUrcFt-118">
          <mxGeometry x="44" width="42" height="40" as="geometry">
            <mxRectangle width="42" height="40" as="alternateBounds" />
          </mxGeometry>
        </mxCell>
        <mxCell id="F6L24uCe4TR0LLmUrcFt-121" value="" style="shape=partialRectangle;html=1;whiteSpace=wrap;connectable=0;strokeColor=inherit;overflow=hidden;fillColor=none;top=0;left=0;bottom=0;right=0;pointerEvents=1;fontSize=20;fontStyle=1" vertex="1" parent="F6L24uCe4TR0LLmUrcFt-118">
          <mxGeometry x="86" width="44" height="40" as="geometry">
            <mxRectangle width="44" height="40" as="alternateBounds" />
          </mxGeometry>
        </mxCell>
        <mxCell id="F6L24uCe4TR0LLmUrcFt-122" value="4" style="rounded=0;whiteSpace=wrap;html=1;fillColor=#fff2cc;strokeColor=#d6b656;fontSize=20;fontStyle=1" vertex="1" parent="1">
          <mxGeometry x="2251" y="670" width="40" height="120" as="geometry" />
        </mxCell>
        <mxCell id="F6L24uCe4TR0LLmUrcFt-123" value="5" style="rounded=0;whiteSpace=wrap;html=1;fillColor=#fff2cc;strokeColor=#d6b656;fontSize=20;fontStyle=1" vertex="1" parent="1">
          <mxGeometry x="2291" y="670" width="40" height="120" as="geometry" />
        </mxCell>
        <mxCell id="F6L24uCe4TR0LLmUrcFt-124" value="6" style="rounded=0;whiteSpace=wrap;html=1;fillColor=#fff2cc;strokeColor=#d6b656;fontSize=20;fontStyle=1" vertex="1" parent="1">
          <mxGeometry x="2331" y="670" width="40" height="120" as="geometry" />
        </mxCell>
        <mxCell id="F6L24uCe4TR0LLmUrcFt-125" value="7" style="rounded=0;whiteSpace=wrap;html=1;fillColor=#fff2cc;strokeColor=#d6b656;fontSize=20;fontStyle=1" vertex="1" parent="1">
          <mxGeometry x="2461" y="670" width="40" height="120" as="geometry" />
        </mxCell>
        <mxCell id="F6L24uCe4TR0LLmUrcFt-126" value="8" style="rounded=0;whiteSpace=wrap;html=1;fillColor=#fff2cc;strokeColor=#d6b656;fontSize=20;fontStyle=1" vertex="1" parent="1">
          <mxGeometry x="2501" y="670" width="40" height="120" as="geometry" />
        </mxCell>
        <mxCell id="F6L24uCe4TR0LLmUrcFt-127" value="9" style="rounded=0;whiteSpace=wrap;html=1;fillColor=#fff2cc;strokeColor=#d6b656;fontSize=20;fontStyle=1" vertex="1" parent="1">
          <mxGeometry x="2541" y="670" width="40" height="120" as="geometry" />
        </mxCell>
        <mxCell id="F6L24uCe4TR0LLmUrcFt-128" value="10" style="rounded=0;whiteSpace=wrap;html=1;fillColor=#fff2cc;strokeColor=#d6b656;fontSize=20;fontStyle=1" vertex="1" parent="1">
          <mxGeometry x="2656" y="670" width="40" height="120" as="geometry" />
        </mxCell>
        <mxCell id="F6L24uCe4TR0LLmUrcFt-129" value="11" style="rounded=0;whiteSpace=wrap;html=1;fillColor=#fff2cc;strokeColor=#d6b656;fontSize=20;fontStyle=1" vertex="1" parent="1">
          <mxGeometry x="2696" y="670" width="40" height="120" as="geometry" />
        </mxCell>
        <mxCell id="F6L24uCe4TR0LLmUrcFt-130" value="12" style="rounded=0;whiteSpace=wrap;html=1;fillColor=#fff2cc;strokeColor=#d6b656;fontSize=20;fontStyle=1" vertex="1" parent="1">
          <mxGeometry x="2736" y="670" width="40" height="120" as="geometry" />
        </mxCell>
        <mxCell id="F6L24uCe4TR0LLmUrcFt-131" value="" style="endArrow=classic;html=1;rounded=0;" edge="1" parent="1">
          <mxGeometry width="50" height="50" relative="1" as="geometry">
            <mxPoint x="1105" y="939" as="sourcePoint" />
            <mxPoint x="2085" y="792" as="targetPoint" />
            <Array as="points">
              <mxPoint x="1105" y="1160" />
              <mxPoint x="2085" y="1160" />
            </Array>
          </mxGeometry>
        </mxCell>
        <mxCell id="F6L24uCe4TR0LLmUrcFt-132" value="" style="endArrow=classic;html=1;rounded=0;" edge="1" parent="1">
          <mxGeometry width="50" height="50" relative="1" as="geometry">
            <mxPoint x="1145" y="937" as="sourcePoint" />
            <mxPoint x="2125" y="790" as="targetPoint" />
            <Array as="points">
              <mxPoint x="1145" y="1158" />
              <mxPoint x="2125" y="1158" />
            </Array>
          </mxGeometry>
        </mxCell>
        <mxCell id="F6L24uCe4TR0LLmUrcFt-133" value="" style="endArrow=classic;html=1;rounded=0;" edge="1" parent="1">
          <mxGeometry width="50" height="50" relative="1" as="geometry">
            <mxPoint x="1182" y="937" as="sourcePoint" />
            <mxPoint x="2162" y="790" as="targetPoint" />
            <Array as="points">
              <mxPoint x="1182" y="1158" />
              <mxPoint x="2162" y="1158" />
            </Array>
          </mxGeometry>
        </mxCell>
        <mxCell id="F6L24uCe4TR0LLmUrcFt-134" value="&lt;font style=&quot;font-size: 22px;&quot;&gt;&lt;b&gt;num_kv_heads&lt;/b&gt;&lt;/font&gt;" style="text;html=1;align=center;verticalAlign=middle;resizable=0;points=[];autosize=1;strokeColor=none;fillColor=none;" vertex="1" parent="1">
          <mxGeometry x="390" y="845" width="180" height="40" as="geometry" />
        </mxCell>
      </root>
    </mxGraphModel>
  </diagram>
</mxfile>
